# xmcd CD database file
#
# Track frame offsets:
#	150
#	25635
#	45100
#	67890
#	90355
#	114632
#	134625
#	156597
#	181020
#	201462
#
# Disc length: 3142 seconds
#
# Revision: 7
# Processed by: cddbd v1.5.1PL2 Copyright (c) Steve Scherf et al.
# Submitted via: CDex 1.51
#
DISCID=7d0c440a
DTITLE=???? - ????????
DYEAR=1994
DGENRE=Jazz
TTITLE0=????????
TTITLE1=DarkZoo
TTITLE2=??????
TTITLE3=??????
TTITLE4=???
TTITLE5=???????????
TTITLE6=????
TTITLE7=?????
TTITLE8=???
TTITLE9=????????
EXTD=YEAR: 1994
EXTT0=
EXTT1=
EXTT2=
EXTT3=
EXTT4=
EXTT5=
EXTT6=
EXTT7=
EXTT8=
EXTT9=
PLAYORDER=
